# xmcd
#
# Track frame offsets:
#	150
#	20420
#	52425
#
# Disc length: 4440 seconds
#
# Revision: 0
# Processed by: cddbd v1.5.2PL0 Copyright (c) Steve Scherf et al.
# Submitted via: audiograbber 1.83.01
#
DISCID=25115603
DTITLE=OLIVIA - Into The Stars CDS
DYEAR=2002
DGENRE=JPop
TTITLE0=Into The Stars
TTITLE1=Ballerina
TTITLE2=data
EXTD=YEAR: 2002
EXTT0=
EXTT1=
EXTT2=
PLAYORDER=
